<mxfile host="app.diagrams.net" modified="2024-04-11T12:40:52.471Z" agent="Mozilla/5.0 (Windows NT 10.0; Win64; x64; rv:124.0) Gecko/20100101 Firefox/124.0" etag="6JywckdzLE-paA0OqYTO" version="24.1.0" type="github">
  <diagram name="第 1 页" id="XMCmuNNpwi6yQyDi8KN_">
    <mxGraphModel dx="3267" dy="1301" grid="1" gridSize="10" guides="1" tooltips="1" connect="1" arrows="1" fold="1" page="1" pageScale="1" pageWidth="827" pageHeight="1169" math="0" shadow="0">
      <root>
        <mxCell id="0" />
        <mxCell id="1" parent="0" />
        <mxCell id="d9nqhnPJKK4CRUgYfxAU-1" value="" style="group" parent="1" vertex="1" connectable="0">
          <mxGeometry x="195" y="80" width="500" height="550" as="geometry" />
        </mxCell>
        <mxCell id="w03qMkmHj91M_tau26hN-21" value="基本项目管理" style="shape=folder;fontStyle=1;tabWidth=110;tabHeight=30;tabPosition=left;html=1;boundedLbl=1;labelInHeader=1;container=0;collapsible=0;whiteSpace=wrap;" parent="d9nqhnPJKK4CRUgYfxAU-1" vertex="1">
          <mxGeometry x="25" width="450" height="550" as="geometry" />
        </mxCell>
        <mxCell id="w03qMkmHj91M_tau26hN-22" value="" style="html=1;strokeColor=none;resizeWidth=1;resizeHeight=1;fillColor=none;part=1;connectable=0;allowArrows=0;deletable=0;whiteSpace=wrap;" parent="d9nqhnPJKK4CRUgYfxAU-1" vertex="1">
          <mxGeometry y="30" width="500" height="441" as="geometry">
            <mxPoint y="30" as="offset" />
          </mxGeometry>
        </mxCell>
        <mxCell id="w03qMkmHj91M_tau26hN-15" value="生命周期管理" style="ellipse;whiteSpace=wrap;html=1;fontSize=14;" parent="d9nqhnPJKK4CRUgYfxAU-1" vertex="1">
          <mxGeometry x="45" y="49" width="140" height="70" as="geometry" />
        </mxCell>
        <mxCell id="w03qMkmHj91M_tau26hN-16" value="工作流程管理" style="ellipse;whiteSpace=wrap;html=1;fontSize=14;" parent="d9nqhnPJKK4CRUgYfxAU-1" vertex="1">
          <mxGeometry x="45" y="370" width="140" height="70" as="geometry" />
        </mxCell>
        <mxCell id="w03qMkmHj91M_tau26hN-17" value="人员管理" style="ellipse;whiteSpace=wrap;html=1;fontSize=14;" parent="d9nqhnPJKK4CRUgYfxAU-1" vertex="1">
          <mxGeometry x="45" y="210" width="140" height="70" as="geometry" />
        </mxCell>
        <mxCell id="w03qMkmHj91M_tau26hN-18" value="权责管理" style="ellipse;whiteSpace=wrap;html=1;fontSize=14;" parent="d9nqhnPJKK4CRUgYfxAU-1" vertex="1">
          <mxGeometry x="45" y="290" width="140" height="70" as="geometry" />
        </mxCell>
        <mxCell id="w03qMkmHj91M_tau26hN-19" value="绩效管理" style="ellipse;whiteSpace=wrap;html=1;fontSize=14;" parent="d9nqhnPJKK4CRUgYfxAU-1" vertex="1">
          <mxGeometry x="45" y="450" width="140" height="70" as="geometry" />
        </mxCell>
        <mxCell id="w03qMkmHj91M_tau26hN-20" value="资金管理" style="ellipse;whiteSpace=wrap;html=1;fontSize=14;" parent="d9nqhnPJKK4CRUgYfxAU-1" vertex="1">
          <mxGeometry x="45" y="130" width="140" height="70" as="geometry" />
        </mxCell>
        <mxCell id="w03qMkmHj91M_tau26hN-41" value="&lt;font style=&quot;font-size: 14px;&quot;&gt;自动分配人员权限&lt;/font&gt;" style="ellipse;whiteSpace=wrap;html=1;" parent="d9nqhnPJKK4CRUgYfxAU-1" vertex="1">
          <mxGeometry x="315" y="240" width="140" height="70" as="geometry" />
        </mxCell>
        <mxCell id="w03qMkmHj91M_tau26hN-42" value="&lt;font style=&quot;font-size: 14px;&quot;&gt;工作流程控制&lt;/font&gt;" style="ellipse;whiteSpace=wrap;html=1;" parent="d9nqhnPJKK4CRUgYfxAU-1" vertex="1">
          <mxGeometry x="315" y="360" width="140" height="70" as="geometry" />
        </mxCell>
        <mxCell id="w03qMkmHj91M_tau26hN-43" value="&lt;font style=&quot;font-size: 14px;&quot;&gt;自动记录贡献&lt;/font&gt;" style="ellipse;whiteSpace=wrap;html=1;" parent="d9nqhnPJKK4CRUgYfxAU-1" vertex="1">
          <mxGeometry x="315" y="450" width="140" height="70" as="geometry" />
        </mxCell>
        <mxCell id="w03qMkmHj91M_tau26hN-45" value="&amp;lt;&amp;lt;include&amp;gt;&amp;gt;" style="html=1;verticalAlign=bottom;labelBackgroundColor=none;endArrow=open;endFill=0;dashed=1;rounded=0;exitX=1;exitY=0.5;exitDx=0;exitDy=0;entryX=0;entryY=0.5;entryDx=0;entryDy=0;" parent="d9nqhnPJKK4CRUgYfxAU-1" source="w03qMkmHj91M_tau26hN-17" target="w03qMkmHj91M_tau26hN-41" edge="1">
          <mxGeometry width="160" relative="1" as="geometry">
            <mxPoint x="225" y="230" as="sourcePoint" />
            <mxPoint x="385" y="230" as="targetPoint" />
          </mxGeometry>
        </mxCell>
        <mxCell id="w03qMkmHj91M_tau26hN-46" value="&amp;lt;&amp;lt;include&amp;gt;&amp;gt;" style="html=1;verticalAlign=bottom;labelBackgroundColor=none;endArrow=open;endFill=0;dashed=1;rounded=0;exitX=1;exitY=0.5;exitDx=0;exitDy=0;entryX=0;entryY=0.5;entryDx=0;entryDy=0;" parent="d9nqhnPJKK4CRUgYfxAU-1" source="w03qMkmHj91M_tau26hN-18" target="w03qMkmHj91M_tau26hN-42" edge="1">
          <mxGeometry width="160" relative="1" as="geometry">
            <mxPoint x="-45" y="530" as="sourcePoint" />
            <mxPoint x="85" y="560" as="targetPoint" />
          </mxGeometry>
        </mxCell>
        <mxCell id="w03qMkmHj91M_tau26hN-47" value="&amp;lt;&amp;lt;include&amp;gt;&amp;gt;" style="html=1;verticalAlign=bottom;labelBackgroundColor=none;endArrow=open;endFill=0;dashed=1;rounded=0;exitX=1;exitY=0.5;exitDx=0;exitDy=0;entryX=0;entryY=0.5;entryDx=0;entryDy=0;" parent="d9nqhnPJKK4CRUgYfxAU-1" source="w03qMkmHj91M_tau26hN-16" target="w03qMkmHj91M_tau26hN-42" edge="1">
          <mxGeometry width="160" relative="1" as="geometry">
            <mxPoint x="185" y="400" as="sourcePoint" />
            <mxPoint x="315" y="400" as="targetPoint" />
          </mxGeometry>
        </mxCell>
        <mxCell id="w03qMkmHj91M_tau26hN-49" value="&amp;lt;&amp;lt;include&amp;gt;&amp;gt;" style="html=1;verticalAlign=bottom;labelBackgroundColor=none;endArrow=open;endFill=0;dashed=1;rounded=0;exitX=1;exitY=0.5;exitDx=0;exitDy=0;entryX=0;entryY=0.5;entryDx=0;entryDy=0;" parent="d9nqhnPJKK4CRUgYfxAU-1" source="w03qMkmHj91M_tau26hN-19" edge="1">
          <mxGeometry width="160" relative="1" as="geometry">
            <mxPoint x="185" y="485" as="sourcePoint" />
            <mxPoint x="318.41664064126337" y="485" as="targetPoint" />
          </mxGeometry>
        </mxCell>
        <mxCell id="w03qMkmHj91M_tau26hN-51" value="&lt;font style=&quot;font-size: 14px;&quot;&gt;自动化项目控制&lt;/font&gt;" style="ellipse;whiteSpace=wrap;html=1;" parent="d9nqhnPJKK4CRUgYfxAU-1" vertex="1">
          <mxGeometry x="315" y="49" width="140" height="70" as="geometry" />
        </mxCell>
        <mxCell id="w03qMkmHj91M_tau26hN-52" value="&amp;lt;&amp;lt;extend&amp;gt;&amp;gt;" style="edgeStyle=none;html=1;startArrow=open;endArrow=none;startSize=12;verticalAlign=bottom;dashed=1;labelBackgroundColor=none;rounded=0;entryX=0;entryY=0.5;entryDx=0;entryDy=0;exitX=1;exitY=0.5;exitDx=0;exitDy=0;" parent="d9nqhnPJKK4CRUgYfxAU-1" source="w03qMkmHj91M_tau26hN-15" target="w03qMkmHj91M_tau26hN-51" edge="1">
          <mxGeometry width="160" relative="1" as="geometry">
            <mxPoint x="555" y="120" as="sourcePoint" />
            <mxPoint x="715" y="120" as="targetPoint" />
          </mxGeometry>
        </mxCell>
        <mxCell id="w03qMkmHj91M_tau26hN-1" value="组长" style="shape=umlActor;verticalLabelPosition=bottom;verticalAlign=top;html=1;" parent="1" vertex="1">
          <mxGeometry x="60" y="240" width="30" height="60" as="geometry" />
        </mxCell>
        <mxCell id="w03qMkmHj91M_tau26hN-27" value="" style="endArrow=none;startArrow=none;endFill=0;startFill=0;endSize=8;html=1;verticalAlign=bottom;labelBackgroundColor=none;strokeWidth=3;rounded=0;entryX=0;entryY=0.5;entryDx=0;entryDy=0;" parent="1" source="w03qMkmHj91M_tau26hN-1" target="w03qMkmHj91M_tau26hN-15" edge="1">
          <mxGeometry width="160" relative="1" as="geometry">
            <mxPoint x="70" y="380" as="sourcePoint" />
            <mxPoint x="230" y="380" as="targetPoint" />
          </mxGeometry>
        </mxCell>
        <mxCell id="w03qMkmHj91M_tau26hN-28" value="" style="endArrow=none;startArrow=none;endFill=0;startFill=0;endSize=8;html=1;verticalAlign=bottom;labelBackgroundColor=none;strokeWidth=3;rounded=0;entryX=0;entryY=0.5;entryDx=0;entryDy=0;" parent="1" source="w03qMkmHj91M_tau26hN-1" target="w03qMkmHj91M_tau26hN-16" edge="1">
          <mxGeometry width="160" relative="1" as="geometry">
            <mxPoint x="620" y="686" as="sourcePoint" />
            <mxPoint x="690" y="640" as="targetPoint" />
          </mxGeometry>
        </mxCell>
        <mxCell id="w03qMkmHj91M_tau26hN-29" value="" style="endArrow=none;startArrow=none;endFill=0;startFill=0;endSize=8;html=1;verticalAlign=bottom;labelBackgroundColor=none;strokeWidth=3;rounded=0;entryX=0;entryY=0.5;entryDx=0;entryDy=0;" parent="1" source="w03qMkmHj91M_tau26hN-1" target="w03qMkmHj91M_tau26hN-17" edge="1">
          <mxGeometry width="160" relative="1" as="geometry">
            <mxPoint x="620" y="686" as="sourcePoint" />
            <mxPoint x="690" y="640" as="targetPoint" />
          </mxGeometry>
        </mxCell>
        <mxCell id="w03qMkmHj91M_tau26hN-32" value="" style="endArrow=none;startArrow=none;endFill=0;startFill=0;endSize=8;html=1;verticalAlign=bottom;labelBackgroundColor=none;strokeWidth=3;rounded=0;exitX=0;exitY=0.5;exitDx=0;exitDy=0;" parent="1" source="w03qMkmHj91M_tau26hN-18" target="w03qMkmHj91M_tau26hN-1" edge="1">
          <mxGeometry width="160" relative="1" as="geometry">
            <mxPoint x="20" y="666" as="sourcePoint" />
            <mxPoint x="90" y="620" as="targetPoint" />
          </mxGeometry>
        </mxCell>
        <mxCell id="w03qMkmHj91M_tau26hN-33" value="" style="endArrow=none;startArrow=none;endFill=0;startFill=0;endSize=8;html=1;verticalAlign=bottom;labelBackgroundColor=none;strokeWidth=3;rounded=0;exitX=0;exitY=0.5;exitDx=0;exitDy=0;" parent="1" source="w03qMkmHj91M_tau26hN-19" target="w03qMkmHj91M_tau26hN-1" edge="1">
          <mxGeometry width="160" relative="1" as="geometry">
            <mxPoint x="50" y="656" as="sourcePoint" />
            <mxPoint x="120" y="610" as="targetPoint" />
          </mxGeometry>
        </mxCell>
        <mxCell id="w03qMkmHj91M_tau26hN-34" value="" style="endArrow=none;startArrow=none;endFill=0;startFill=0;endSize=8;html=1;verticalAlign=bottom;labelBackgroundColor=none;strokeWidth=3;rounded=0;exitX=0;exitY=0.5;exitDx=0;exitDy=0;" parent="1" source="w03qMkmHj91M_tau26hN-20" target="w03qMkmHj91M_tau26hN-1" edge="1">
          <mxGeometry width="160" relative="1" as="geometry">
            <mxPoint x="20" y="736" as="sourcePoint" />
            <mxPoint x="90" y="690" as="targetPoint" />
          </mxGeometry>
        </mxCell>
        <mxCell id="w03qMkmHj91M_tau26hN-35" value="翻译组长" style="shape=umlActor;html=1;verticalLabelPosition=bottom;verticalAlign=top;align=center;" parent="1" vertex="1">
          <mxGeometry x="60" y="510" width="30" height="60" as="geometry" />
        </mxCell>
        <mxCell id="w03qMkmHj91M_tau26hN-38" value="" style="endArrow=none;startArrow=none;endFill=0;startFill=0;endSize=8;html=1;verticalAlign=bottom;labelBackgroundColor=none;strokeWidth=3;rounded=0;exitX=0;exitY=0.5;exitDx=0;exitDy=0;" parent="1" source="w03qMkmHj91M_tau26hN-16" target="w03qMkmHj91M_tau26hN-35" edge="1">
          <mxGeometry width="160" relative="1" as="geometry">
            <mxPoint x="110" y="660" as="sourcePoint" />
            <mxPoint x="200" y="580" as="targetPoint" />
          </mxGeometry>
        </mxCell>
        <mxCell id="w03qMkmHj91M_tau26hN-39" value="" style="endArrow=none;startArrow=none;endFill=0;startFill=0;endSize=8;html=1;verticalAlign=bottom;labelBackgroundColor=none;strokeWidth=3;rounded=0;exitX=0;exitY=0.5;exitDx=0;exitDy=0;" parent="1" source="w03qMkmHj91M_tau26hN-18" target="w03qMkmHj91M_tau26hN-35" edge="1">
          <mxGeometry width="160" relative="1" as="geometry">
            <mxPoint x="10" y="586" as="sourcePoint" />
            <mxPoint x="80" y="540" as="targetPoint" />
          </mxGeometry>
        </mxCell>
        <mxCell id="w03qMkmHj91M_tau26hN-40" value="" style="endArrow=none;startArrow=none;endFill=0;startFill=0;endSize=8;html=1;verticalAlign=bottom;labelBackgroundColor=none;strokeWidth=3;rounded=0;exitX=0;exitY=0.5;exitDx=0;exitDy=0;" parent="1" source="w03qMkmHj91M_tau26hN-19" target="w03qMkmHj91M_tau26hN-35" edge="1">
          <mxGeometry width="160" relative="1" as="geometry">
            <mxPoint x="50" y="586" as="sourcePoint" />
            <mxPoint x="120" y="540" as="targetPoint" />
          </mxGeometry>
        </mxCell>
        <mxCell id="d9nqhnPJKK4CRUgYfxAU-2" value="项目进度管理" style="shape=folder;fontStyle=1;tabWidth=110;tabHeight=30;tabPosition=left;html=1;boundedLbl=1;labelInHeader=1;container=0;collapsible=0;whiteSpace=wrap;" parent="1" vertex="1">
          <mxGeometry x="220" y="660" width="450" height="320" as="geometry" />
        </mxCell>
        <mxCell id="d9nqhnPJKK4CRUgYfxAU-3" value="翻译工作管理" style="shape=folder;fontStyle=1;tabWidth=110;tabHeight=30;tabPosition=left;html=1;boundedLbl=1;labelInHeader=1;container=0;collapsible=0;whiteSpace=wrap;" parent="1" vertex="1">
          <mxGeometry x="-520" y="530" width="450" height="420" as="geometry" />
        </mxCell>
        <mxCell id="d9nqhnPJKK4CRUgYfxAU-6" value="项目质量管理" style="shape=folder;fontStyle=1;tabWidth=110;tabHeight=30;tabPosition=left;html=1;boundedLbl=1;labelInHeader=1;container=0;collapsible=0;whiteSpace=wrap;" parent="1" vertex="1">
          <mxGeometry x="-520" y="80" width="450" height="420" as="geometry" />
        </mxCell>
        <mxCell id="d9nqhnPJKK4CRUgYfxAU-7" value="&lt;span style=&quot;font-size:10.5pt;mso-bidi-font-size:11.0pt;&lt;br/&gt;font-family:等线;mso-ascii-theme-font:minor-latin;mso-fareast-theme-font:minor-fareast;&lt;br/&gt;mso-hansi-theme-font:minor-latin;mso-bidi-font-family:&amp;quot;Times New Roman&amp;quot;;&lt;br/&gt;mso-bidi-theme-font:minor-bidi;mso-ansi-language:EN-US;mso-fareast-language:&lt;br/&gt;ZH-CN;mso-bidi-language:AR-SA&quot;&gt;时间计划管理&lt;/span&gt;" style="ellipse;whiteSpace=wrap;html=1;" parent="1" vertex="1">
          <mxGeometry x="240" y="720" width="140" height="70" as="geometry" />
        </mxCell>
        <mxCell id="d9nqhnPJKK4CRUgYfxAU-9" value="翻译工作者" style="shape=umlActor;html=1;verticalLabelPosition=bottom;verticalAlign=top;align=center;" parent="1" vertex="1">
          <mxGeometry x="60" y="790" width="30" height="60" as="geometry" />
        </mxCell>
        <mxCell id="d9nqhnPJKK4CRUgYfxAU-11" value="翻译" style="shape=umlActor;html=1;verticalLabelPosition=bottom;verticalAlign=top;align=center;" parent="1" vertex="1">
          <mxGeometry x="130" y="990" width="30" height="60" as="geometry" />
        </mxCell>
        <mxCell id="d9nqhnPJKK4CRUgYfxAU-12" value="校对" style="shape=umlActor;html=1;verticalLabelPosition=bottom;verticalAlign=top;align=center;" parent="1" vertex="1">
          <mxGeometry x="-10" y="990" width="30" height="60" as="geometry" />
        </mxCell>
        <mxCell id="d9nqhnPJKK4CRUgYfxAU-14" value="Extends" style="endArrow=block;endSize=16;endFill=0;html=1;rounded=0;" parent="1" source="d9nqhnPJKK4CRUgYfxAU-11" target="d9nqhnPJKK4CRUgYfxAU-9" edge="1">
          <mxGeometry width="160" relative="1" as="geometry">
            <mxPoint x="30" y="890" as="sourcePoint" />
            <mxPoint x="190" y="890" as="targetPoint" />
          </mxGeometry>
        </mxCell>
        <mxCell id="d9nqhnPJKK4CRUgYfxAU-15" value="Extends" style="endArrow=block;endSize=16;endFill=0;html=1;rounded=0;" parent="1" source="d9nqhnPJKK4CRUgYfxAU-12" target="d9nqhnPJKK4CRUgYfxAU-9" edge="1">
          <mxGeometry width="160" relative="1" as="geometry">
            <mxPoint x="80" y="850" as="sourcePoint" />
            <mxPoint x="240" y="850" as="targetPoint" />
          </mxGeometry>
        </mxCell>
        <mxCell id="d9nqhnPJKK4CRUgYfxAU-17" value="运营/发布人员" style="shape=umlActor;verticalLabelPosition=bottom;verticalAlign=top;html=1;outlineConnect=0;" parent="1" vertex="1">
          <mxGeometry x="740" y="790" width="30" height="60" as="geometry" />
        </mxCell>
        <mxCell id="d9nqhnPJKK4CRUgYfxAU-18" value="&lt;span style=&quot;font-size:10.5pt;mso-bidi-font-size:11.0pt;&lt;br/&gt;font-family:等线;mso-ascii-theme-font:minor-latin;mso-fareast-theme-font:minor-fareast;&lt;br/&gt;mso-hansi-theme-font:minor-latin;mso-bidi-font-family:&amp;quot;Times New Roman&amp;quot;;&lt;br/&gt;mso-bidi-theme-font:minor-bidi;mso-ansi-language:EN-US;mso-fareast-language:&lt;br/&gt;ZH-CN;mso-bidi-language:AR-SA&quot;&gt;交付管理&lt;/span&gt;" style="ellipse;whiteSpace=wrap;html=1;" parent="1" vertex="1">
          <mxGeometry x="240" y="800" width="140" height="70" as="geometry" />
        </mxCell>
        <mxCell id="d9nqhnPJKK4CRUgYfxAU-19" value="&lt;span style=&quot;font-size:10.5pt;mso-bidi-font-size:11.0pt;&lt;br/&gt;font-family:等线;mso-ascii-theme-font:minor-latin;mso-fareast-theme-font:minor-fareast;&lt;br/&gt;mso-hansi-theme-font:minor-latin;mso-bidi-font-family:&amp;quot;Times New Roman&amp;quot;;&lt;br/&gt;mso-bidi-theme-font:minor-bidi;mso-ansi-language:EN-US;mso-fareast-language:&lt;br/&gt;ZH-CN;mso-bidi-language:AR-SA&quot;&gt;项目延期管理&lt;/span&gt;" style="ellipse;whiteSpace=wrap;html=1;" parent="1" vertex="1">
          <mxGeometry x="240" y="880" width="140" height="70" as="geometry" />
        </mxCell>
        <mxCell id="d9nqhnPJKK4CRUgYfxAU-21" value="" style="endArrow=none;startArrow=none;endFill=0;startFill=0;endSize=8;html=1;verticalAlign=bottom;labelBackgroundColor=none;strokeWidth=3;rounded=0;exitX=0;exitY=0.5;exitDx=0;exitDy=0;" parent="1" source="d9nqhnPJKK4CRUgYfxAU-7" target="w03qMkmHj91M_tau26hN-35" edge="1">
          <mxGeometry width="160" relative="1" as="geometry">
            <mxPoint x="120" y="756" as="sourcePoint" />
            <mxPoint x="190" y="710" as="targetPoint" />
          </mxGeometry>
        </mxCell>
        <mxCell id="d9nqhnPJKK4CRUgYfxAU-22" value="" style="endArrow=none;startArrow=none;endFill=0;startFill=0;endSize=8;html=1;verticalAlign=bottom;labelBackgroundColor=none;strokeWidth=3;rounded=0;exitX=0;exitY=0.5;exitDx=0;exitDy=0;" parent="1" source="d9nqhnPJKK4CRUgYfxAU-18" target="w03qMkmHj91M_tau26hN-35" edge="1">
          <mxGeometry width="160" relative="1" as="geometry">
            <mxPoint x="-30" y="696" as="sourcePoint" />
            <mxPoint x="40" y="650" as="targetPoint" />
          </mxGeometry>
        </mxCell>
        <mxCell id="d9nqhnPJKK4CRUgYfxAU-23" value="" style="endArrow=none;startArrow=none;endFill=0;startFill=0;endSize=8;html=1;verticalAlign=bottom;labelBackgroundColor=none;strokeWidth=3;rounded=0;exitX=0;exitY=0.5;exitDx=0;exitDy=0;" parent="1" source="d9nqhnPJKK4CRUgYfxAU-19" target="w03qMkmHj91M_tau26hN-35" edge="1">
          <mxGeometry width="160" relative="1" as="geometry">
            <mxPoint x="40" y="766" as="sourcePoint" />
            <mxPoint x="110" y="720" as="targetPoint" />
          </mxGeometry>
        </mxCell>
        <mxCell id="d9nqhnPJKK4CRUgYfxAU-25" value="&lt;font style=&quot;font-size: 14px;&quot;&gt;自动交付&lt;/font&gt;" style="ellipse;whiteSpace=wrap;html=1;strokeColor=default;align=center;verticalAlign=middle;fontFamily=Helvetica;fontSize=12;fontColor=default;fillColor=default;" parent="1" vertex="1">
          <mxGeometry x="510" y="750" width="140" height="70" as="geometry" />
        </mxCell>
        <mxCell id="d9nqhnPJKK4CRUgYfxAU-26" value="&lt;font style=&quot;font-size: 14px;&quot;&gt;延期交付行为管理&lt;/font&gt;" style="ellipse;whiteSpace=wrap;html=1;" parent="1" vertex="1">
          <mxGeometry x="510" y="840" width="140" height="70" as="geometry" />
        </mxCell>
        <mxCell id="d9nqhnPJKK4CRUgYfxAU-28" value="" style="endArrow=none;startArrow=none;endFill=0;startFill=0;endSize=8;html=1;verticalAlign=bottom;labelBackgroundColor=none;strokeWidth=3;rounded=0;exitX=1;exitY=0.5;exitDx=0;exitDy=0;" parent="1" source="d9nqhnPJKK4CRUgYfxAU-25" target="d9nqhnPJKK4CRUgYfxAU-17" edge="1">
          <mxGeometry width="160" relative="1" as="geometry">
            <mxPoint x="710" y="766" as="sourcePoint" />
            <mxPoint x="780" y="720" as="targetPoint" />
          </mxGeometry>
        </mxCell>
        <mxCell id="d9nqhnPJKK4CRUgYfxAU-29" value="" style="endArrow=none;startArrow=none;endFill=0;startFill=0;endSize=8;html=1;verticalAlign=bottom;labelBackgroundColor=none;strokeWidth=3;rounded=0;exitX=1;exitY=0.5;exitDx=0;exitDy=0;" parent="1" source="d9nqhnPJKK4CRUgYfxAU-26" target="d9nqhnPJKK4CRUgYfxAU-17" edge="1">
          <mxGeometry width="160" relative="1" as="geometry">
            <mxPoint x="730" y="966" as="sourcePoint" />
            <mxPoint x="800" y="920" as="targetPoint" />
          </mxGeometry>
        </mxCell>
        <mxCell id="d9nqhnPJKK4CRUgYfxAU-30" value="&amp;lt;&amp;lt;extend&amp;gt;&amp;gt;" style="edgeStyle=none;html=1;startArrow=open;endArrow=none;startSize=12;verticalAlign=bottom;dashed=1;labelBackgroundColor=none;rounded=0;entryX=0;entryY=0.5;entryDx=0;entryDy=0;exitX=1;exitY=0.5;exitDx=0;exitDy=0;" parent="1" source="d9nqhnPJKK4CRUgYfxAU-18" target="d9nqhnPJKK4CRUgYfxAU-25" edge="1">
          <mxGeometry width="160" relative="1" as="geometry">
            <mxPoint x="429.99999999999363" y="780" as="sourcePoint" />
            <mxPoint x="559.9999999999936" y="780" as="targetPoint" />
          </mxGeometry>
        </mxCell>
        <mxCell id="d9nqhnPJKK4CRUgYfxAU-31" value="&amp;lt;&amp;lt;extend&amp;gt;&amp;gt;" style="edgeStyle=none;html=1;startArrow=open;endArrow=none;startSize=12;verticalAlign=bottom;dashed=1;labelBackgroundColor=none;rounded=0;entryX=0;entryY=0.5;entryDx=0;entryDy=0;exitX=1;exitY=0.5;exitDx=0;exitDy=0;" parent="1" source="d9nqhnPJKK4CRUgYfxAU-18" target="d9nqhnPJKK4CRUgYfxAU-26" edge="1">
          <mxGeometry width="160" relative="1" as="geometry">
            <mxPoint x="369.99999999999363" y="880" as="sourcePoint" />
            <mxPoint x="499.99999999999363" y="880" as="targetPoint" />
          </mxGeometry>
        </mxCell>
        <mxCell id="d9nqhnPJKK4CRUgYfxAU-33" value="&amp;lt;&amp;lt;include&amp;gt;&amp;gt;" style="html=1;verticalAlign=bottom;labelBackgroundColor=none;endArrow=open;endFill=0;dashed=1;rounded=0;exitX=1;exitY=0.5;exitDx=0;exitDy=0;entryX=0;entryY=0.5;entryDx=0;entryDy=0;" parent="1" source="d9nqhnPJKK4CRUgYfxAU-19" target="d9nqhnPJKK4CRUgYfxAU-26" edge="1">
          <mxGeometry width="160" relative="1" as="geometry">
            <mxPoint x="400" y="910" as="sourcePoint" />
            <mxPoint x="530" y="940" as="targetPoint" />
          </mxGeometry>
        </mxCell>
        <mxCell id="d9nqhnPJKK4CRUgYfxAU-34" value="" style="endArrow=none;startArrow=none;endFill=0;startFill=0;endSize=8;html=1;verticalAlign=bottom;labelBackgroundColor=none;strokeWidth=3;rounded=0;entryX=0;entryY=0.5;entryDx=0;entryDy=0;" parent="1" source="d9nqhnPJKK4CRUgYfxAU-9" target="d9nqhnPJKK4CRUgYfxAU-7" edge="1">
          <mxGeometry width="160" relative="1" as="geometry">
            <mxPoint x="150" y="876" as="sourcePoint" />
            <mxPoint x="220" y="830" as="targetPoint" />
          </mxGeometry>
        </mxCell>
        <mxCell id="d9nqhnPJKK4CRUgYfxAU-35" value="翻译反馈管理" style="ellipse;whiteSpace=wrap;html=1;fontSize=14;" parent="1" vertex="1">
          <mxGeometry x="-230" y="400" width="140" height="70" as="geometry" />
        </mxCell>
        <mxCell id="d9nqhnPJKK4CRUgYfxAU-36" value="工作记录管理" style="ellipse;whiteSpace=wrap;html=1;fontSize=14;" parent="1" vertex="1">
          <mxGeometry x="-230" y="220" width="140" height="70" as="geometry" />
        </mxCell>
        <mxCell id="d9nqhnPJKK4CRUgYfxAU-37" value="翻译争议管理" style="ellipse;whiteSpace=wrap;html=1;fontSize=14;" parent="1" vertex="1">
          <mxGeometry x="-230" y="310" width="140" height="70" as="geometry" />
        </mxCell>
        <mxCell id="d9nqhnPJKK4CRUgYfxAU-38" value="项目标准管理" style="ellipse;whiteSpace=wrap;html=1;fontSize=14;" parent="1" vertex="1">
          <mxGeometry x="-230" y="130" width="140" height="70" as="geometry" />
        </mxCell>
        <mxCell id="d9nqhnPJKK4CRUgYfxAU-39" value="翻译反馈收集" style="ellipse;whiteSpace=wrap;html=1;fontSize=14;" parent="1" vertex="1">
          <mxGeometry x="-483" y="400" width="140" height="70" as="geometry" />
        </mxCell>
        <mxCell id="d9nqhnPJKK4CRUgYfxAU-40" value="" style="endArrow=none;startArrow=none;endFill=0;startFill=0;endSize=8;html=1;verticalAlign=bottom;labelBackgroundColor=none;strokeWidth=3;rounded=0;exitX=1;exitY=0.5;exitDx=0;exitDy=0;" parent="1" source="d9nqhnPJKK4CRUgYfxAU-38" target="w03qMkmHj91M_tau26hN-35" edge="1">
          <mxGeometry width="160" relative="1" as="geometry">
            <mxPoint y="396" as="sourcePoint" />
            <mxPoint x="70" y="350" as="targetPoint" />
          </mxGeometry>
        </mxCell>
        <mxCell id="d9nqhnPJKK4CRUgYfxAU-41" value="" style="endArrow=none;startArrow=none;endFill=0;startFill=0;endSize=8;html=1;verticalAlign=bottom;labelBackgroundColor=none;strokeWidth=3;rounded=0;entryX=1;entryY=0.5;entryDx=0;entryDy=0;" parent="1" source="w03qMkmHj91M_tau26hN-35" target="d9nqhnPJKK4CRUgYfxAU-36" edge="1">
          <mxGeometry width="160" relative="1" as="geometry">
            <mxPoint x="-190" y="656" as="sourcePoint" />
            <mxPoint x="-120" y="610" as="targetPoint" />
          </mxGeometry>
        </mxCell>
        <mxCell id="d9nqhnPJKK4CRUgYfxAU-42" value="" style="endArrow=none;startArrow=none;endFill=0;startFill=0;endSize=8;html=1;verticalAlign=bottom;labelBackgroundColor=none;strokeWidth=3;rounded=0;entryX=1;entryY=0.5;entryDx=0;entryDy=0;" parent="1" source="d9nqhnPJKK4CRUgYfxAU-9" target="d9nqhnPJKK4CRUgYfxAU-36" edge="1">
          <mxGeometry width="160" relative="1" as="geometry">
            <mxPoint x="10" y="666" as="sourcePoint" />
            <mxPoint x="80" y="620" as="targetPoint" />
          </mxGeometry>
        </mxCell>
        <mxCell id="d9nqhnPJKK4CRUgYfxAU-43" value="" style="endArrow=none;startArrow=none;endFill=0;startFill=0;endSize=8;html=1;verticalAlign=bottom;labelBackgroundColor=none;strokeWidth=3;rounded=0;entryX=1;entryY=0.5;entryDx=0;entryDy=0;" parent="1" source="d9nqhnPJKK4CRUgYfxAU-9" target="d9nqhnPJKK4CRUgYfxAU-35" edge="1">
          <mxGeometry width="160" relative="1" as="geometry">
            <mxPoint x="-160" y="584.5" as="sourcePoint" />
            <mxPoint x="-90" y="538.5" as="targetPoint" />
          </mxGeometry>
        </mxCell>
        <mxCell id="d9nqhnPJKK4CRUgYfxAU-44" value="讨论争议" style="ellipse;whiteSpace=wrap;html=1;fontSize=14;" parent="1" vertex="1">
          <mxGeometry x="-483" y="310" width="140" height="70" as="geometry" />
        </mxCell>
        <mxCell id="d9nqhnPJKK4CRUgYfxAU-45" value="处理争议" style="ellipse;whiteSpace=wrap;html=1;fontSize=14;" parent="1" vertex="1">
          <mxGeometry x="-483" y="220" width="140" height="70" as="geometry" />
        </mxCell>
        <mxCell id="d9nqhnPJKK4CRUgYfxAU-46" value="翻译反馈者/玩家" style="shape=umlActor;verticalLabelPosition=bottom;verticalAlign=top;html=1;outlineConnect=0;" parent="1" vertex="1">
          <mxGeometry x="-630" y="405" width="30" height="60" as="geometry" />
        </mxCell>
        <mxCell id="d9nqhnPJKK4CRUgYfxAU-47" value="" style="endArrow=none;startArrow=none;endFill=0;startFill=0;endSize=8;html=1;verticalAlign=bottom;labelBackgroundColor=none;strokeWidth=3;rounded=0;entryX=1;entryY=0.5;entryDx=0;entryDy=0;" parent="1" source="d9nqhnPJKK4CRUgYfxAU-9" target="d9nqhnPJKK4CRUgYfxAU-37" edge="1">
          <mxGeometry width="160" relative="1" as="geometry">
            <mxPoint x="-400" y="596" as="sourcePoint" />
            <mxPoint x="-330" y="550" as="targetPoint" />
          </mxGeometry>
        </mxCell>
        <mxCell id="d9nqhnPJKK4CRUgYfxAU-49" value="&amp;lt;&amp;lt;include&amp;gt;&amp;gt;" style="html=1;verticalAlign=bottom;labelBackgroundColor=none;endArrow=open;endFill=0;dashed=1;rounded=0;exitX=0;exitY=0.5;exitDx=0;exitDy=0;entryX=1;entryY=0.5;entryDx=0;entryDy=0;" parent="1" source="d9nqhnPJKK4CRUgYfxAU-35" target="d9nqhnPJKK4CRUgYfxAU-39" edge="1">
          <mxGeometry width="160" relative="1" as="geometry">
            <mxPoint x="-350" y="570" as="sourcePoint" />
            <mxPoint x="-220" y="600" as="targetPoint" />
          </mxGeometry>
        </mxCell>
        <mxCell id="d9nqhnPJKK4CRUgYfxAU-50" value="" style="endArrow=none;startArrow=none;endFill=0;startFill=0;endSize=8;html=1;verticalAlign=bottom;labelBackgroundColor=none;strokeWidth=3;rounded=0;exitX=0;exitY=0.5;exitDx=0;exitDy=0;" parent="1" source="d9nqhnPJKK4CRUgYfxAU-39" target="d9nqhnPJKK4CRUgYfxAU-46" edge="1">
          <mxGeometry width="160" relative="1" as="geometry">
            <mxPoint x="-690" y="566" as="sourcePoint" />
            <mxPoint x="-620" y="520" as="targetPoint" />
          </mxGeometry>
        </mxCell>
        <mxCell id="d9nqhnPJKK4CRUgYfxAU-51" value="&amp;lt;&amp;lt;include&amp;gt;&amp;gt;" style="html=1;verticalAlign=bottom;labelBackgroundColor=none;endArrow=open;endFill=0;dashed=1;rounded=0;exitX=0;exitY=0.5;exitDx=0;exitDy=0;entryX=1;entryY=0.5;entryDx=0;entryDy=0;" parent="1" source="d9nqhnPJKK4CRUgYfxAU-37" target="d9nqhnPJKK4CRUgYfxAU-44" edge="1">
          <mxGeometry width="160" relative="1" as="geometry">
            <mxPoint x="-270" y="360" as="sourcePoint" />
            <mxPoint x="-140" y="390" as="targetPoint" />
          </mxGeometry>
        </mxCell>
        <mxCell id="d9nqhnPJKK4CRUgYfxAU-53" value="&amp;lt;&amp;lt;include&amp;gt;&amp;gt;" style="html=1;verticalAlign=bottom;labelBackgroundColor=none;endArrow=open;endFill=0;dashed=1;rounded=0;exitX=0;exitY=0.5;exitDx=0;exitDy=0;entryX=1;entryY=0.5;entryDx=0;entryDy=0;" parent="1" source="d9nqhnPJKK4CRUgYfxAU-37" target="d9nqhnPJKK4CRUgYfxAU-45" edge="1">
          <mxGeometry width="160" relative="1" as="geometry">
            <mxPoint x="-290" y="290" as="sourcePoint" />
            <mxPoint x="-160" y="320" as="targetPoint" />
          </mxGeometry>
        </mxCell>
        <mxCell id="d9nqhnPJKK4CRUgYfxAU-54" value="&amp;lt;&amp;lt;import&amp;gt;&amp;gt;" style="endArrow=open;startArrow=none;endFill=0;startFill=0;endSize=8;html=1;verticalAlign=bottom;dashed=1;labelBackgroundColor=none;rounded=0;" parent="1" edge="1">
          <mxGeometry width="160" relative="1" as="geometry">
            <mxPoint x="-70" y="130" as="sourcePoint" />
            <mxPoint x="220" y="130" as="targetPoint" />
          </mxGeometry>
        </mxCell>
        <mxCell id="d9nqhnPJKK4CRUgYfxAU-55" value="自动记录贡献" style="ellipse;whiteSpace=wrap;html=1;fontSize=14;fillColor=#f5f5f5;fontColor=#333333;strokeColor=#666666;" parent="1" vertex="1">
          <mxGeometry x="-483" y="130" width="140" height="70" as="geometry" />
        </mxCell>
        <mxCell id="d9nqhnPJKK4CRUgYfxAU-56" value="&amp;lt;&amp;lt;extend&amp;gt;&amp;gt;" style="edgeStyle=none;html=1;startArrow=open;endArrow=none;startSize=12;verticalAlign=bottom;dashed=1;labelBackgroundColor=none;rounded=0;entryX=1;entryY=0.5;entryDx=0;entryDy=0;exitX=0;exitY=0.5;exitDx=0;exitDy=0;" parent="1" source="d9nqhnPJKK4CRUgYfxAU-36" target="d9nqhnPJKK4CRUgYfxAU-55" edge="1">
          <mxGeometry width="160" relative="1" as="geometry">
            <mxPoint x="-700.0000000000064" y="280" as="sourcePoint" />
            <mxPoint x="-570.0000000000064" y="280" as="targetPoint" />
          </mxGeometry>
        </mxCell>
        <mxCell id="d9nqhnPJKK4CRUgYfxAU-57" value="原文与译文管理" style="ellipse;whiteSpace=wrap;html=1;fontSize=14;" parent="1" vertex="1">
          <mxGeometry x="-230" y="675" width="140" height="70" as="geometry" />
        </mxCell>
        <mxCell id="d9nqhnPJKK4CRUgYfxAU-58" value="额外信息管理" style="ellipse;whiteSpace=wrap;html=1;fontSize=14;" parent="1" vertex="1">
          <mxGeometry x="-483" y="585" width="140" height="70" as="geometry" />
        </mxCell>
        <mxCell id="d9nqhnPJKK4CRUgYfxAU-59" value="宏管理" style="ellipse;whiteSpace=wrap;html=1;fontSize=14;" parent="1" vertex="1">
          <mxGeometry x="-483" y="675" width="140" height="70" as="geometry" />
        </mxCell>
        <mxCell id="d9nqhnPJKK4CRUgYfxAU-60" value="术语管理" style="ellipse;whiteSpace=wrap;html=1;fontSize=14;" parent="1" vertex="1">
          <mxGeometry x="-483" y="845" width="140" height="70" as="geometry" />
        </mxCell>
        <mxCell id="d9nqhnPJKK4CRUgYfxAU-61" value="资料管理" style="ellipse;whiteSpace=wrap;html=1;fontSize=14;" parent="1" vertex="1">
          <mxGeometry x="-230" y="790" width="140" height="70" as="geometry" />
        </mxCell>
        <mxCell id="d9nqhnPJKK4CRUgYfxAU-62" value="键值对管理" style="ellipse;whiteSpace=wrap;html=1;fontSize=14;" parent="1" vertex="1">
          <mxGeometry x="-483" y="760" width="140" height="70" as="geometry" />
        </mxCell>
        <mxCell id="d9nqhnPJKK4CRUgYfxAU-63" value="文学顾问" style="shape=umlActor;verticalLabelPosition=bottom;verticalAlign=top;html=1;outlineConnect=0;" parent="1" vertex="1">
          <mxGeometry x="-310" y="990" width="30" height="60" as="geometry" />
        </mxCell>
        <mxCell id="d9nqhnPJKK4CRUgYfxAU-64" value="" style="endArrow=none;startArrow=none;endFill=0;startFill=0;endSize=8;html=1;verticalAlign=bottom;labelBackgroundColor=none;strokeWidth=3;rounded=0;exitX=1;exitY=0.5;exitDx=0;exitDy=0;" parent="1" source="d9nqhnPJKK4CRUgYfxAU-57" target="d9nqhnPJKK4CRUgYfxAU-9" edge="1">
          <mxGeometry width="160" relative="1" as="geometry">
            <mxPoint x="-60" y="856" as="sourcePoint" />
            <mxPoint x="10" y="810" as="targetPoint" />
          </mxGeometry>
        </mxCell>
        <mxCell id="d9nqhnPJKK4CRUgYfxAU-65" value="" style="endArrow=none;startArrow=none;endFill=0;startFill=0;endSize=8;html=1;verticalAlign=bottom;labelBackgroundColor=none;strokeWidth=3;rounded=0;exitX=1;exitY=0.5;exitDx=0;exitDy=0;" parent="1" source="d9nqhnPJKK4CRUgYfxAU-61" target="d9nqhnPJKK4CRUgYfxAU-9" edge="1">
          <mxGeometry width="160" relative="1" as="geometry">
            <mxPoint x="-40" y="866" as="sourcePoint" />
            <mxPoint x="30" y="820" as="targetPoint" />
          </mxGeometry>
        </mxCell>
        <mxCell id="d9nqhnPJKK4CRUgYfxAU-66" value="" style="endArrow=none;startArrow=none;endFill=0;startFill=0;endSize=8;html=1;verticalAlign=bottom;labelBackgroundColor=none;strokeWidth=3;rounded=0;entryX=0.5;entryY=1;entryDx=0;entryDy=0;" parent="1" source="d9nqhnPJKK4CRUgYfxAU-63" target="d9nqhnPJKK4CRUgYfxAU-60" edge="1">
          <mxGeometry width="160" relative="1" as="geometry">
            <mxPoint x="-340" y="716" as="sourcePoint" />
            <mxPoint x="-270" y="670" as="targetPoint" />
          </mxGeometry>
        </mxCell>
        <mxCell id="d9nqhnPJKK4CRUgYfxAU-67" value="" style="endArrow=none;startArrow=none;endFill=0;startFill=0;endSize=8;html=1;verticalAlign=bottom;labelBackgroundColor=none;strokeWidth=3;rounded=0;entryX=0.5;entryY=1;entryDx=0;entryDy=0;" parent="1" source="d9nqhnPJKK4CRUgYfxAU-63" target="d9nqhnPJKK4CRUgYfxAU-61" edge="1">
          <mxGeometry width="160" relative="1" as="geometry">
            <mxPoint x="-160" y="1086" as="sourcePoint" />
            <mxPoint x="-90" y="1040" as="targetPoint" />
          </mxGeometry>
        </mxCell>
        <mxCell id="d9nqhnPJKK4CRUgYfxAU-68" value="&amp;lt;&amp;lt;extend&amp;gt;&amp;gt;" style="edgeStyle=none;html=1;startArrow=open;endArrow=none;startSize=12;verticalAlign=bottom;dashed=1;labelBackgroundColor=none;rounded=0;entryX=1;entryY=0.5;entryDx=0;entryDy=0;exitX=0;exitY=0.5;exitDx=0;exitDy=0;" parent="1" source="d9nqhnPJKK4CRUgYfxAU-57" target="d9nqhnPJKK4CRUgYfxAU-58" edge="1">
          <mxGeometry width="160" relative="1" as="geometry">
            <mxPoint x="-360.00000000000637" y="630" as="sourcePoint" />
            <mxPoint x="-230.00000000000637" y="630" as="targetPoint" />
          </mxGeometry>
        </mxCell>
        <mxCell id="d9nqhnPJKK4CRUgYfxAU-69" value="&amp;lt;&amp;lt;extend&amp;gt;&amp;gt;" style="edgeStyle=none;html=1;startArrow=open;endArrow=none;startSize=12;verticalAlign=bottom;dashed=1;labelBackgroundColor=none;rounded=0;entryX=1;entryY=0.5;entryDx=0;entryDy=0;" parent="1" target="d9nqhnPJKK4CRUgYfxAU-62" edge="1">
          <mxGeometry width="160" relative="1" as="geometry">
            <mxPoint x="-230" y="710" as="sourcePoint" />
            <mxPoint x="-680.0000000000064" y="600" as="targetPoint" />
          </mxGeometry>
        </mxCell>
        <mxCell id="d9nqhnPJKK4CRUgYfxAU-70" value="&amp;lt;&amp;lt;extend&amp;gt;&amp;gt;" style="edgeStyle=none;html=1;startArrow=open;endArrow=none;startSize=12;verticalAlign=bottom;dashed=1;labelBackgroundColor=none;rounded=0;entryX=1;entryY=0.5;entryDx=0;entryDy=0;" parent="1" source="d9nqhnPJKK4CRUgYfxAU-57" target="d9nqhnPJKK4CRUgYfxAU-59" edge="1">
          <mxGeometry width="160" relative="1" as="geometry">
            <mxPoint x="-780.0000000000064" y="730" as="sourcePoint" />
            <mxPoint x="-650.0000000000064" y="730" as="targetPoint" />
          </mxGeometry>
        </mxCell>
        <mxCell id="d9nqhnPJKK4CRUgYfxAU-72" value="&amp;lt;&amp;lt;extend&amp;gt;&amp;gt;" style="edgeStyle=none;html=1;startArrow=open;endArrow=none;startSize=12;verticalAlign=bottom;dashed=1;labelBackgroundColor=none;rounded=0;entryX=1;entryY=0.5;entryDx=0;entryDy=0;exitX=0;exitY=0.5;exitDx=0;exitDy=0;" parent="1" source="d9nqhnPJKK4CRUgYfxAU-57" target="d9nqhnPJKK4CRUgYfxAU-60" edge="1">
          <mxGeometry width="160" relative="1" as="geometry">
            <mxPoint x="-230" y="710" as="sourcePoint" />
            <mxPoint x="-470.00000000000637" y="940" as="targetPoint" />
          </mxGeometry>
        </mxCell>
      </root>
    </mxGraphModel>
  </diagram>
</mxfile>
